<svg version="1.1" id="レイヤー_1" xmlns="http://www.w3.org/2000/svg" x="0" y="0" viewBox="0 0 122 122" xml:space="preserve"><style>.st1{fill:#fff}</style><g id="グループ_14" transform="translate(8777 -15039)"><path id="長方形_6" fill="none" d="M-8777 15039h122v122h-122z"/><g id="グループ_8" transform="translate(-8781.079 15034.921)"><path id="パス_11" class="st1" d="M65.1 15.1c16.3 0 18.2.1 24.6.4 3.9 0 7.7.8 11.3 2.1 2.6 1 5 2.5 7 4.6 2 2 3.6 4.4 4.6 7 1.3 3.6 2.1 7.5 2.1 11.3.3 6.4.4 8.4.4 24.6s-.1 18.2-.4 24.6c0 3.9-.8 7.7-2.1 11.3-2.1 5.3-6.3 9.5-11.6 11.6-3.6 1.3-7.5 2.1-11.3 2.1-6.4.3-8.4.4-24.6.4s-18.2-.1-24.6-.4c-3.9 0-7.7-.8-11.3-2.1-2.6-1-5-2.5-7-4.6-2-2-3.6-4.4-4.6-7-1.3-3.6-2.1-7.5-2.1-11.3-.3-6.4-.4-8.4-.4-24.6s.1-18.2.4-24.6c0-3.9.8-7.7 2.1-11.3 1-2.6 2.5-5 4.6-7 2-2 4.4-3.6 7-4.6 3.6-1.3 7.5-2.1 11.3-2.1 6.4-.4 8.3-.4 24.6-.4m0-11c-16.6 0-18.6.1-25.2.4-5.1.1-10.1 1.1-14.8 2.8-4.1 1.5-7.8 3.9-10.8 7-3.1 3-5.5 6.7-7 10.8-1.8 4.7-2.7 9.7-2.8 14.8-.3 6.5-.4 8.6-.4 25.2s.1 18.6.4 25.2c.1 5.1 1.1 10.1 2.8 14.8 1.5 4.1 3.9 7.8 7 10.8 3 3.1 6.7 5.5 10.8 7 4.7 1.8 9.7 2.7 14.8 2.8 6.5.3 8.6.4 25.1.4s18.6-.1 25.2-.4c5.1-.1 10.1-1.1 14.8-2.8 8.2-3.2 14.7-9.6 17.8-17.8 1.8-4.7 2.7-9.7 2.8-14.8.3-6.5.4-8.6.4-25.2s-.1-18.6-.4-25.2c-.1-5.1-1.1-10.1-2.8-14.8-1.5-4.1-3.9-7.8-7-10.8-3-3.1-6.7-5.5-10.8-7-4.7-1.8-9.7-2.7-14.8-2.8-6.5-.4-8.6-.4-25.1-.4z"/><path id="パス_12" class="st1" d="M65.1 33.8c-17.3 0-31.3 14-31.3 31.3s14 31.3 31.3 31.3 31.3-14 31.3-31.3-14-31.3-31.3-31.3zm0 51.6c-11.2 0-20.3-9.1-20.3-20.3s9.1-20.3 20.3-20.3 20.3 9.1 20.3 20.3c0 11.2-9.1 20.3-20.3 20.3z"/><circle id="楕円形_1" class="st1" cx="97.6" cy="32.5" r="7.3"/></g></g></svg>