<svg xmlns="http://www.w3.org/2000/svg" viewBox="0 0 144 117"><path fill="none" d="M0 0h144v117H0z"/><path d="M128.5 29.703c.1 1.3.1 2.5.1 3.8 0 38.5-29.3 82.9-82.9 82.9-15.8 0-31.3-4.5-44.7-13.1 2.3.3 4.6.4 6.9.4 13.1 0 25.9-4.4 36.2-12.5-12.5-.2-23.4-8.4-27.2-20.2 4.4.8 8.9.7 13.2-.5-13.6-2.8-23.4-14.7-23.4-28.6v-.4c4.1 2.3 8.6 3.5 13.2 3.6-12.8-8.6-16.7-25.6-9-38.9 14.8 18.2 36.6 29.3 60 30.4-3.6-15.7 6.1-31.4 21.8-35 10.1-2.3 20.7.9 27.8 8.4 6.5-1.3 12.8-3.7 18.5-7.1-2.2 6.7-6.7 12.5-12.8 16.1 5.8-.7 11.4-2.2 16.7-4.6-3.8 6.1-8.7 11.2-14.4 15.3z"/></svg>