<svg xmlns="http://www.w3.org/2000/svg" viewBox="0 0 132 126"><path fill="none" d="M0 0h132v126H0z"/><path d="M132 53.6C132 24.1 102.4 0 66 0S0 24 0 53.6c0 26.5 23.5 48.6 55.2 52.8 2.1.5 5.1 1.4 5.8 3.3.7 1.7.4 4.3.2 6 0 0-.8 4.7-.9 5.7-.3 1.7-1.3 6.5 5.7 3.6s38-22.4 51.9-38.3C127.4 76 132 65.4 132 53.6zM42.7 69.3c0 .7-.6 1.3-1.3 1.3H22.9c-.3 0-.6-.1-.9-.4-.2-.2-.4-.6-.4-.9V40.5c0-.7.6-1.3 1.3-1.3h4.6c.7 0 1.3.6 1.3 1.3v22.8h12.6c.7 0 1.3.6 1.3 1.3v4.7zm11.2 0c0 .7-.6 1.3-1.3 1.3H48c-.7 0-1.3-.6-1.3-1.3V40.5c0-.7.6-1.3 1.3-1.3h4.6c.7 0 1.3.6 1.3 1.3v28.8zm31.8 0c0 .7-.6 1.3-1.3 1.3h-5.3l-.3-.3-13.2-17.8v17.1c0 .7-.6 1.3-1.3 1.3h-4.6c-.7 0-1.3-.6-1.3-1.3V40.8c0-.7.6-1.3 1.3-1.3h5.4l.1.1.1.1.1.1 13.2 17.8V40.5c0-.7.6-1.3 1.3-1.3h4.6c.7 0 1.3.6 1.3 1.3l-.1 28.8zm25.6-24.1c0 .7-.6 1.3-1.3 1.3H97.4v4.9H110c.7 0 1.3.6 1.3 1.3v4.6c0 .7-.6 1.3-1.3 1.3H97.4v4.9H110c.7 0 1.3.6 1.3 1.3v4.6c0 .7-.6 1.3-1.3 1.3H91.5c-.3 0-.6-.1-.9-.4-.2-.2-.4-.6-.4-.9V40.6c0-.3.1-.6.4-.9.2-.2.6-.4.9-.4H110c.7 0 1.3.6 1.3 1.3v4.6z" fill="#231916"/></svg>