<svg version="1.1" id="レイヤー_1" xmlns="http://www.w3.org/2000/svg" x="0" y="0" viewBox="0 0 823 89" xml:space="preserve"><style>.st1{fill:#fff}</style><g id="グループ_3" transform="translate(10473 -15324)"><path id="長方形_1" fill="none" d="M-10473 15324h823v89h-823z"/><g id="グループ_1" transform="translate(-10473 15326)"><path id="パス_1" class="st1" d="M641.6 66.5c-1 0-1.9.8-2.1 1.8-.5 2.9-1.6 5.7-3.1 8.1-2.3 3.5-4.8 6-10.8 6.3l-24.3.2c-.7 0-2.8-.3-3-2.3V42.7h22.6c.8 0 1.6.1 2.4.3.6.2 1.1.4 1.7.6 1.3.6 2.3 1.7 3 3 .4.7.8 1.3 1.2 2 .3.7.9 1.2 1.7 1.5.8.2.8-.8.8-1.4v-.1c-.2-2.2-.6-11.8-.4-14v-.1c0-.6 0-1.6-.8-1.4-.7.3-1.3.8-1.6 1.5-.4.7-.3.5-.7 1.2-.6 1.3-1.7 2.3-3 3 0 0-.4.2-1 .4-1 .3-2 .5-3.1.5h-22.6V5.4c.2-1.9 2.3-2.3 3-2.3l23.5.2c2.2 0 4.4.2 6.5.7 1.1.2 2.1.9 2.8 1.8.2.4.4.8.6 1.3.5 1.3.7 2.7.7 4 0 .9.2 1.5.9 1.5.4 0 .7-.7.8-1.2.2-1.3 1.2-9.1 1-9.6-.2-1-1.4-1-6.4-1h-43.3c-2.4-.1-5.2-.1-7.7-.1-1.2 0-1.8.2-1.8.9 0 .4.4.7.9.7 1.3 0 2.5.1 3.8.3 1.1.2 2.1.6 3 1.3.2.2.3.4.5.6.4.7.8 1.4 1 2.2.1.3.2.7.2 1 .1.4.1.8.1 1.3v63.6c-.1 1.9-.2 3.6-.3 5-.1 1.4-.5 2.9-1 4.2-.4.6-.8 1.1-1.3 1.6-.3.2-.6.3-.9.3-1.1.3-2.2.4-3.3.4-.7 0-.9.3-.9.7 0 .7.6.9 1.8.9 1.6 0 3.9-.2 6-.2h41.2c5.1-.1 9.8-.6 10.6-3.2 1-4.5 1.7-9 2-13.6 0-1.6-.2-2.2-.9-2.2z"/><path id="パス_2" class="st1" d="M822.2 66.5c-1 0-1.9.8-2.2 1.8-.5 2.9-1.6 5.7-3.1 8.1-2.3 3.5-4.8 6-10.8 6.3l-26.3.2c-.7 0-2.8-.3-3.1-2.3V18.4c0-5.4.1-7.4.2-9.6 0-.9.2-1.8.4-2.7.2-.6.4-1.2.7-1.7.1-.2.3-.4.4-.6.8-.8 1.8-1.3 2.9-1.4 1.2-.2 2.5-.3 3.7-.3.4 0 .9-.2.9-.7 0-.7-.6-.9-1.8-.9-1.7 0-4.8.1-7.4.2h-9.5c-2.4-.1-5.4-.2-7.9-.2-1.2 0-1.8.2-1.8.9 0 .4.4.7.9.7 1.3 0 2.5.1 3.8.3 1.3.2 2.5.8 3.5 1.8 0 .1.1.1.1.2.3.5.6 1.1.8 1.6.2.9.4 1.8.4 2.7.1 1.2.1 2.3.2 4v59.7c-.1 1.9-.2 3.6-.3 5-.1 1.5-.5 2.9-1 4.2-.4.6-.8 1.1-1.3 1.5-.3.2-.6.3-.9.4-1.1.3-2.2.4-3.3.4-.7 0-.9.3-.9.7 0 .7.6.9 1.8.9 1.6 0 3.9-.2 6.1-.2h44v-.1c4.8-.2 9-.8 9.7-3.2 1-4.5 1.7-9 2-13.6-.1-1.3-.2-1.9-.9-1.9z"/><path id="パス_3" class="st1" d="M470.9 27.4c-2.1-5.1-5.3-9.8-9.2-13.7-4.3-4.1-9.3-7.4-14.8-9.5-1.2-.5-2.3-.8-3.5-1.2C438 1.4 432.5.6 427 .7c-2.6-.1-8.9 0-9.5 0h-12.2c-2.4-.1-5.4-.2-7.9-.2-1.2 0-1.8.2-1.8.9 0 .5.4.7.9.7 1.3 0 2.5.1 3.8.3 3.7.8 4.6 2.6 4.8 6.4.1 1.2.1 2.3.2 4v59.7c-.1 1.9-.2 3.6-.4 5-.1 1.6-.5 3.2-1.2 4.7-.2.3-.5.6-.7.8-.4.3-.8.5-1.3.6-1.1.3-2.2.4-3.4.4-.7 0-.9.3-.9.7 0 .7.6.9 1.8.9 1.6 0 3.9-.2 6-.2h19.9c7.3.1 14.5-1.1 21.3-3.7 5.7-2.2 10.9-5.4 15.3-9.6 4-3.8 7.1-8.3 9.2-13.4 2-4.9 3.1-10.1 3.1-15.3.1-5.5-1-11-3.1-16zm-6.4 21c-.8 10.1-6.1 19.3-14.3 25.3-8.2 5.9-17.9 8.1-27.9 8.7-2.5.2-5.1.3-7.6.3-1.4-.1-1.9-.7-1.9-2.1V15.8l.2-10.7h8.7c5.9-.1 11.7 1 17.1 3.2 10.8 4.4 20.5 13.4 24 24.7 1.5 5.1 2.1 10.2 1.7 15.4z"/><path id="パス_4" class="st1" d="M280.7 66.5c-1 0-1.9.8-2.2 1.8-.5 2.9-1.6 5.7-3.1 8.1-2.3 3.5-4.8 6-10.8 6.3l-24.3.2c-.7 0-2.8-.3-3-2.3V42.7h22.6c.8 0 1.6.1 2.4.3.6.2 1.1.4 1.7.6 1.3.6 2.3 1.7 3 3 .4.7.8 1.3 1.2 2 .3.7.9 1.2 1.7 1.5.8.2.8-.8.8-1.4v-.1c-.2-2.2-.6-11.8-.5-14v-.1c0-.6 0-1.6-.8-1.4-.7.3-1.3.8-1.6 1.5-.4.7-.3.5-.7 1.2-.6 1.3-1.7 2.3-3 3 0 0-.4.2-1 .4-1 .3-2 .5-3.1.5h-22.6V5.4c.2-1.9 2.3-2.3 3-2.3l23.8.1c2.2 0 4.4.2 6.5.7 1.1.2 2.1.9 2.8 1.8.2.4.5.8.6 1.3.5 1.3.7 2.7.7 4 0 .9.2 1.5.9 1.5.5 0 .7-.7.8-1.2.2-1.3 1.2-9.1 1-9.6-.2-1-1.4-1-6.4-1h-43.3c-2.4-.1-5.2-.1-7.7-.1-1.2 0-1.8.2-1.8.9 0 .4.4.7.9.7 1.3 0 2.5.1 3.8.3 1.1.2 2.1.6 3 1.3.2.2.3.4.5.6.4.7.8 1.4 1 2.2.1.3.2.7.2 1 0 .4.1.8.1 1.3v63.6c-.1 1.9-.2 3.6-.4 5-.1 1.4-.5 2.9-1 4.2-.4.6-.8 1.1-1.3 1.6-.3.2-.6.3-.9.3-1.1.3-2.2.4-3.4.4-.7 0-.9.3-.9.7 0 .7.6.9 1.8.9 1.6 0 3.9-.2 6-.2h41.1c5.1-.1 9.8-.6 10.6-3.2 1-4.5 1.7-9 2-13.6.1-1.5 0-2.1-.7-2.1z"/><path id="パス_5" class="st1" d="M106.7.8c-1.7 0-4.7.1-7.3.2h-5.6c-.9 0-1.8.1-2.7.4-.5.3-.9.7-1.3 1.1L54.9 51.1C46.3 39.2 37 26.6 28.3 14.7c-3.1-4.2-5.9-8.3-9.6-11.2C15.5 1.1 11.5-.2 7.5 0 5.1 0 2.2.4.3 2.4c-.2.2-.5.8 0 .9 3.3 0 7.4.5 9.3 3.3.4.7.5 2.6.5 4.4 0 4.4-.1 38.4-.1 55.8v5.8c0 1.8-.2 3.4-.3 4.8-.4 3.2-1 5.7-3.2 6.1-1.1.3-2.2.4-3.3.4-.7 0-.9.3-.9.7 0 .7.6.9 1.8.9 1.6 0 3.9-.2 6-.2h4.2c2.1 0 4.5.2 6 .2 1.2 0 1.8-.2 1.8-.9 0-.3-.2-.7-.9-.7-1.1 0-2.2-.2-3.3-.4-.2 0-.4-.1-.6-.2-1-.6-1.6-1.5-1.9-2.6-.4-1.4-.7-2.8-.7-4.2-.1-1.3-.2-2.8-.2-4.2 0-2.4.1-4.8 0-7.2V11.5c2.6 3.2 4.6 6.2 4.6 6.2 2.5 3.4 5.5 7.6 8.7 11.9 3.2 4.1 10.6 13.6 12.9 16.5s4.4 4.5 7 5.3c1.9.5 4 .7 6 .3.4 0 .7-.1 1-.2L37.5 75.3h2.8L89.9 6.4v66c-.1 1.9-.2 3.6-.3 4.9-.1 1.5-.5 3-1.1 4.4-.3.5-.7.9-1.1 1.3-.3.2-.7.4-1.1.5-1.1.3-2.2.4-3.3.4-.7 0-.9.3-.9.7 0 .7.6.9 1.8.9 1.6 0 3.9-.2 6-.2h9.5c2.1 0 4.5.2 6 .2 1.2 0 1.8-.2 1.8-.9 0-.3-.2-.7-.9-.7-1.1 0-2.2-.2-3.3-.4-.4-.1-.8-.2-1.1-.5-.4-.4-.7-.8-1-1.2-.6-1.4-1-2.9-1.1-4.4-.2-1.3-.3-3-.4-4.9V18.6c0-5.3.1-7.4.2-9.6 0-1.5.3-3 1-4.4.1-.1.1-.2.2-.3.8-1 1.9-1.6 3.1-1.7 1.2-.2 2.4-.3 3.7-.3.4 0 .9-.2.9-.7 0-.5-.5-.8-1.8-.8z"/></g></g></svg>